<?xml version="1.0" encoding="UTF-8"?>
<svg version="1.1" xmlns="http://www.w3.org/2000/svg" width="720" height="720">
<path d="M0 0 C9.3740625 -0.0309375 9.3740625 -0.0309375 18.9375 -0.0625 C21.89964478 -0.07615601 21.89964478 -0.07615601 24.92163086 -0.09008789 C26.47770113 -0.09300705 28.03377216 -0.09555561 29.58984375 -0.09765625 C30.81290222 -0.1053302 30.81290222 -0.1053302 32.06066895 -0.11315918 C34.04080523 -0.1134694 36.02084654 -0.06238096 38 0 C39 1 39 1 39.11352539 4.69360352 C39.11336624 6.33871292 39.10766988 7.98382731 39.09765625 9.62890625 C39.09553383 10.92525246 39.09553383 10.92525246 39.09336853 12.24778748 C39.08775239 15.01939292 39.07519719 17.7909188 39.0625 20.5625 C39.05748708 22.4368478 39.05292381 24.31119685 39.04882812 26.18554688 C39.03777772 30.79039544 39.0205023 35.39518421 39 40 C40.76428345 39.99214478 40.76428345 39.99214478 42.56420898 39.98413086 C46.91202031 39.96608337 51.2598283 39.95456892 55.60766602 39.94506836 C57.4924373 39.94002756 59.37720465 39.93319502 61.26196289 39.92456055 C63.96501636 39.91248383 66.66801831 39.90676932 69.37109375 39.90234375 C70.21900986 39.89718246 71.06692596 39.89202118 71.9405365 39.88670349 C73.96071068 39.88650805 75.98077934 39.93793789 78 40 C79 41 79 41 79.11352539 44.69360352 C79.11327427 46.33871291 79.10771184 47.98382757 79.09765625 49.62890625 C79.09664917 50.39456909 79.09564209 51.16023193 79.09460449 51.94909668 C79.08935663 54.82024627 79.07539547 57.69137458 79.0625 60.5625 C79.041875 66.976875 79.02125 73.39125 79 80 C91.87 79.67 104.74 79.34 118 79 C118.33 66.13 118.66 53.26 119 40 C131.87 40 144.74 40 158 40 C157.96039595 27.21006205 157.96039595 27.21006205 157.90991211 14.42016602 C157.90699297 12.8230801 157.90444441 11.22599345 157.90234375 9.62890625 C157.89722778 8.79194214 157.89211182 7.95497803 157.88684082 7.09265137 C157.88653076 5.06141735 157.93759812 3.03027529 158 1 C159 0 159 0 162.60180664 -0.11352539 C164.20459855 -0.11327429 165.80739587 -0.1077126 167.41015625 -0.09765625 C168.15616089 -0.09664917 168.90216553 -0.09564209 169.67077637 -0.09460449 C172.46803313 -0.08935689 175.26526804 -0.07539573 178.0625 -0.0625 C184.311875 -0.041875 190.56125 -0.02125 197 0 C197 13.2 197 26.4 197 40 C210.2 40 223.4 40 237 40 C237 66.07 237 92.14 237 119 C249.87 119 262.74 119 276 119 C277.60871498 120.60871498 277.12600829 122.32900899 277.12698364 124.55529785 C277.12980347 125.53968338 277.13262329 126.52406891 277.13552856 127.5382843 C277.13350433 128.62715439 277.1314801 129.71602448 277.12939453 130.83789062 C277.13114685 131.97759811 277.13289917 133.1173056 277.13470459 134.29154968 C277.13912586 138.07979836 277.13618414 141.8680008 277.1328125 145.65625 C277.13348546 148.27559417 277.13445542 150.89493827 277.13571167 153.51428223 C277.1375332 159.01229356 277.13512749 164.51029148 277.13037109 170.00830078 C277.1249285 176.37316987 277.12669117 182.73800692 277.1321975 189.10287523 C277.13727429 195.21484332 277.1367471 201.32679716 277.13381577 207.43876648 C277.13314622 210.04481511 277.13397587 212.65086455 277.13629532 215.25691223 C277.13882022 218.89200033 277.13498353 222.52702596 277.12939453 226.16210938 C277.13141876 227.25097946 277.13344299 228.33984955 277.13552856 229.4617157 C277.13270874 230.44610123 277.12988892 231.43048676 277.12698364 232.44470215 C277.12660662 233.30527977 277.12622959 234.16585739 277.12584114 235.05251312 C277 237 277 237 276 238 C273.11588825 238.08864512 270.25517191 238.11528526 267.37109375 238.09765625 C266.22259949 238.09614563 266.22259949 238.09614563 265.05090332 238.09460449 C262.17975373 238.08935663 259.30862542 238.07539547 256.4375 238.0625 C250.023125 238.041875 243.60875 238.02125 237 238 C237 250.87 237 263.74 237 277 C224.13 277.33 211.26 277.66 198 278 C198 303.74 198 329.48 198 356 C217.305 356.495 217.305 356.495 237 357 C237 396.27 237 435.54 237 476 C250.2 476 263.4 476 277 476 C277 488.87 277 501.74 277 515 C289.87 515 302.74 515 316 515 C316 541.07 316 567.14 316 594 C329.2 594 342.4 594 356 594 C356 620.07 356 646.14 356 673 C316.73 673 277.46 673 237 673 C237 685.21 237 697.42 237 710 C198.06 710 159.12 710 119 710 C119 684.92 119 659.84 119 634 C105.8 634 92.6 634 79 634 C79 659.08 79 684.16 79 710 C39.73 710 0.46 710 -40 710 C-40 697.79 -40 685.58 -40 673 C-105.34 673 -170.68 673 -238 673 C-238 660.13 -238 647.26 -238 634 C-250.87 634 -263.74 634 -277 634 C-277 620.8 -277 607.6 -277 594 C-290.2 594 -303.4 594 -317 594 C-317 555.06 -317 516.12 -317 476 C-297.695 475.505 -297.695 475.505 -278 475 C-277.67 448.93 -277.34 422.86 -277 396 C-264.13 396 -251.26 396 -238 396 C-238 369.93 -238 343.86 -238 317 C-224.8 317 -211.6 317 -198 317 C-198 304.13 -198 291.26 -198 278 C-185.13 278 -172.26 278 -159 278 C-159 290.87 -159 303.74 -159 317 C-146.21006205 316.96039595 -146.21006205 316.96039595 -133.42016602 316.90991211 C-131.8230801 316.90699297 -130.22599345 316.90444441 -128.62890625 316.90234375 C-127.79194214 316.89722778 -126.95497803 316.89211182 -126.09265137 316.88684082 C-124.06141735 316.88653076 -122.03027529 316.93759812 -120 317 C-118.39128502 318.60871498 -118.87399171 320.32900899 -118.87301636 322.55529785 C-118.87019653 323.53968338 -118.86737671 324.52406891 -118.86447144 325.5382843 C-118.86750778 327.17158943 -118.86750778 327.17158943 -118.87060547 328.83789062 C-118.86797699 330.54745186 -118.86797699 330.54745186 -118.86529541 332.29154968 C-118.86087414 336.07979836 -118.86381586 339.8680008 -118.8671875 343.65625 C-118.86651454 346.27559417 -118.86554458 348.89493827 -118.86428833 351.51428223 C-118.8624668 357.01229356 -118.86487251 362.51029148 -118.86962891 368.00830078 C-118.8750715 374.37316987 -118.87330883 380.73800692 -118.8678025 387.10287523 C-118.86272571 393.21484332 -118.8632529 399.32679716 -118.86618423 405.43876648 C-118.86685378 408.04481511 -118.86602413 410.65086455 -118.86370468 413.25691223 C-118.86117978 416.89200033 -118.86501647 420.52702596 -118.87060547 424.16210938 C-118.86858124 425.25097946 -118.86655701 426.33984955 -118.86447144 427.4617157 C-118.86729126 428.44610123 -118.87011108 429.43048676 -118.87301636 430.44470215 C-118.8735819 431.73556858 -118.8735819 431.73556858 -118.87415886 433.05251312 C-119 435 -119 435 -120 436 C-132.87 436 -145.74 436 -159 436 C-159 462.07 -159 488.14 -159 515 C-172.2 515 -185.4 515 -199 515 C-198.67 527.87 -198.34 540.74 -198 554 C-185.13 554.33 -172.26 554.66 -159 555 C-159 567.87 -159 580.74 -159 594 C-145.8 594 -132.6 594 -119 594 C-119 567.93 -119 541.86 -119 515 C-105.8 515 -92.6 515 -79 515 C-79 502.13 -79 489.26 -79 476 C-66.13 476 -53.26 476 -40 476 C-40 436.73 -40 397.46 -40 357 C-26.8 357 -13.6 357 0 357 C0 330.6 0 304.2 0 277 C-13.2 277 -26.4 277 -40 277 C-40 264.13 -40 251.26 -40 238 C-52.87 238 -65.74 238 -79 238 C-79 198.73 -79 159.46 -79 119 C-66.13 119 -53.26 119 -40 119 C-40 92.93 -40 66.86 -40 40 C-26.8 40 -13.6 40 0 40 C0 26.8 0 13.6 0 0 Z " fill="#450F4A" transform="translate(347,10)"/>
</svg>
